<svg id="visual" viewBox="0 0 960 540" width="960" height="540" xmlns="http://www.w3.org/2000/svg" xmlns:xlink="http://www.w3.org/1999/xlink" version="1.1"><rect x="0" y="0" width="960" height="540" fill="#DBF0F3"></rect><defs><linearGradient id="grad1_0" x1="43.8%" y1="0%" x2="100%" y2="100%"><stop offset="14.444444444444446%" stop-color="#dbf0f3" stop-opacity="1"></stop><stop offset="85.55555555555554%" stop-color="#dbf0f3" stop-opacity="1"></stop></linearGradient></defs><defs><linearGradient id="grad2_0" x1="0%" y1="0%" x2="56.3%" y2="100%"><stop offset="14.444444444444446%" stop-color="#dbf0f3" stop-opacity="1"></stop><stop offset="85.55555555555554%" stop-color="#dbf0f3" stop-opacity="1"></stop></linearGradient></defs><g transform="translate(960, 0)"><path d="M0 216C-35 219.8 -69.9 223.7 -82.7 199.6C-95.4 175.5 -86 123.4 -101.1 101.1C-116.3 78.8 -156 86.1 -179.2 74.2C-202.5 62.3 -209.2 31.2 -216 0L0 0Z" fill="#4FAE77"></path></g><g transform="translate(0, 540)"><path d="M0 -216C33 -218.4 66 -220.7 82.7 -199.6C99.3 -178.4 99.5 -133.6 108.9 -108.9C118.3 -84.2 136.8 -79.5 156.1 -64.7C175.5 -49.9 195.8 -24.9 216 0L0 0Z" fill="#4FAE77"></path></g> </svg>

